# xmcd
#
# Track frame offsets: 
#        150
#        15035
#        29531
#        47432
#        65365
#        78234
#        91625
#        106105
#        127066
#        143098
#        158766
#        177668
#        193995
#        209350
#        226364
#        241496
#        259478
#        274031
#        287894
#        305501
#
# Disc length: 4309 seconds
#
# Revision: 0
# Processed by: cddbd v1.5.2PL0 Copyright (c) Steve Scherf et al.
# Submitted via: ExactAudioCopy v1.1
#
DISCID=1610d314
DTITLE=Various Artist - Het Beste Uit De MNM 1000 Van 2016 - CD 3
DYEAR=2016
DGENRE=Pop
TTITLE0=Justin Bieber - Sorry
TTITLE1=Ariana Grande Feat. Iggy Azalea - Problem
TTITLE2=Virtual Zone - Virtual Zone
TTITLE3=Jennifer Lopez - Let's Get Loud
TTITLE4=2 Fabiola Feat. Loredana - She's After My Piano
TTITLE5=Alvaro Soler - El Mismo Sol
TTITLE6=Kenny B - Parijs
TTITLE7=John Legend - Ordinary People
TTITLE8=Years and Years - King
TTITLE9=Aurélie - Meisje Met De Parel
TTITLE10=2 Brothers On The 4th Floor - Never Alone
TTITLE11=Hardwell Feat. Matthew Koma - Dare You
TTITLE12=Fall Out Boy - Thnks Fr Th Mmrs
TTITLE13=Kenny Loggins - Footloose
TTITLE14=George Ezra - Budapest
TTITLE15=Tokio Hotel - Monsoon
TTITLE16=Miguel - Adorn
TTITLE17=Kelis - Milkshake
TTITLE18=Keane - Somewhere Only We Know
TTITLE19=3T - I Need You
EXTD=
EXTT0=
EXTT1=
EXTT2=
EXTT3=
EXTT4=
EXTT5=
EXTT6=
EXTT7=
EXTT8=
EXTT9=
EXTT10=
EXTT11=
EXTT12=
EXTT13=
EXTT14=
EXTT15=
EXTT16=
EXTT17=
EXTT18=
EXTT19=
PLAYORDER=
